<mxfile host="app.diagrams.net" modified="2024-04-21T19:59:25.881Z" agent="Mozilla/5.0 (Windows NT 10.0; Win64; x64) AppleWebKit/537.36 (KHTML, like Gecko) Chrome/123.0.0.0 Safari/537.36" etag="QwWlOLPBN4RcaT3ZjajV" version="24.2.5" type="device">
  <diagram name="Page-1" id="VgQfXrDe9iAMfdvl7svX">
    <mxGraphModel dx="1728" dy="982" grid="1" gridSize="10" guides="1" tooltips="1" connect="1" arrows="1" fold="1" page="1" pageScale="1" pageWidth="850" pageHeight="1100" math="0" shadow="0">
      <root>
        <mxCell id="0" />
        <mxCell id="1" parent="0" />
        <mxCell id="6qoJEgBiVO3ZPrVP6R4_-1" value="Base REST Service" style="swimlane;whiteSpace=wrap;html=1;" vertex="1" parent="1">
          <mxGeometry x="80" y="370" width="200" height="200" as="geometry" />
        </mxCell>
        <mxCell id="6qoJEgBiVO3ZPrVP6R4_-2" value="AI Assistant REST Service" style="swimlane;whiteSpace=wrap;html=1;" vertex="1" parent="1">
          <mxGeometry x="510" y="370" width="200" height="200" as="geometry" />
        </mxCell>
        <mxCell id="6qoJEgBiVO3ZPrVP6R4_-3" value="Actor" style="shape=umlActor;verticalLabelPosition=bottom;verticalAlign=top;html=1;outlineConnect=0;" vertex="1" parent="1">
          <mxGeometry x="580" y="760" width="52.5" height="110" as="geometry" />
        </mxCell>
        <mxCell id="6qoJEgBiVO3ZPrVP6R4_-5" value="Client" style="text;html=1;align=center;verticalAlign=middle;whiteSpace=wrap;rounded=0;" vertex="1" parent="1">
          <mxGeometry x="525" y="690" width="170" height="70" as="geometry" />
        </mxCell>
        <mxCell id="6qoJEgBiVO3ZPrVP6R4_-7" value="" style="endArrow=classic;html=1;rounded=0;entryX=1;entryY=0.25;entryDx=0;entryDy=0;exitX=0;exitY=0.25;exitDx=0;exitDy=0;" edge="1" parent="1" source="6qoJEgBiVO3ZPrVP6R4_-2" target="6qoJEgBiVO3ZPrVP6R4_-1">
          <mxGeometry width="50" height="50" relative="1" as="geometry">
            <mxPoint x="460" y="650" as="sourcePoint" />
            <mxPoint x="510" y="600" as="targetPoint" />
          </mxGeometry>
        </mxCell>
        <mxCell id="6qoJEgBiVO3ZPrVP6R4_-8" value="" style="endArrow=classic;html=1;rounded=0;entryX=0;entryY=0.75;entryDx=0;entryDy=0;exitX=1;exitY=0.75;exitDx=0;exitDy=0;" edge="1" parent="1" source="6qoJEgBiVO3ZPrVP6R4_-1" target="6qoJEgBiVO3ZPrVP6R4_-2">
          <mxGeometry width="50" height="50" relative="1" as="geometry">
            <mxPoint x="320" y="530" as="sourcePoint" />
            <mxPoint x="290" y="430" as="targetPoint" />
          </mxGeometry>
        </mxCell>
        <mxCell id="6qoJEgBiVO3ZPrVP6R4_-9" value="Validate user existence" style="text;html=1;align=center;verticalAlign=middle;whiteSpace=wrap;rounded=0;" vertex="1" parent="1">
          <mxGeometry x="310" y="380" width="180" height="30" as="geometry" />
        </mxCell>
        <mxCell id="6qoJEgBiVO3ZPrVP6R4_-10" value="Response (wether this client is valid or not)" style="text;html=1;align=center;verticalAlign=middle;whiteSpace=wrap;rounded=0;" vertex="1" parent="1">
          <mxGeometry x="310" y="480" width="180" height="30" as="geometry" />
        </mxCell>
        <mxCell id="6qoJEgBiVO3ZPrVP6R4_-12" value="" style="endArrow=classic;startArrow=classic;html=1;rounded=0;exitX=0.5;exitY=0;exitDx=0;exitDy=0;entryX=0.5;entryY=1;entryDx=0;entryDy=0;" edge="1" parent="1" source="6qoJEgBiVO3ZPrVP6R4_-5" target="6qoJEgBiVO3ZPrVP6R4_-2">
          <mxGeometry width="50" height="50" relative="1" as="geometry">
            <mxPoint x="460" y="650" as="sourcePoint" />
            <mxPoint x="510" y="600" as="targetPoint" />
          </mxGeometry>
        </mxCell>
        <mxCell id="6qoJEgBiVO3ZPrVP6R4_-13" value="&lt;div style=&quot;text-align: justify;&quot;&gt;&lt;span style=&quot;background-color: initial;&quot;&gt;If the user is valid, meaning it exists in our DB, it can sent any request to the AI Assistance service, this is to protect the set of endpoints of this REST Service&lt;/span&gt;&lt;/div&gt;" style="text;html=1;align=center;verticalAlign=middle;whiteSpace=wrap;rounded=0;" vertex="1" parent="1">
          <mxGeometry x="632.5" y="590" width="190" height="90" as="geometry" />
        </mxCell>
      </root>
    </mxGraphModel>
  </diagram>
</mxfile>
